<svg xmlns="http://www.w3.org/2000/svg" viewBox="0 10 450 175" width="450" height="175">
  <defs>
    <linearGradient id="symbolGrad" x1="0%" y1="0%" x2="100%" y2="100%">
      <stop offset="0%" style="stop-color:#5EEAD4;stop-opacity:1" />
      <stop offset="100%" style="stop-color:#14B8A6;stop-opacity:1" />
    </linearGradient>
    <linearGradient id="glowGrad" x1="0%" y1="0%" x2="100%" y2="100%">
      <stop offset="0%" style="stop-color:#2DD4BF;stop-opacity:0.3" />
      <stop offset="100%" style="stop-color:#14B8A6;stop-opacity:0" />
    </linearGradient>
    <filter id="glow">
      <feGaussianBlur stdDeviation="3" result="coloredBlur"/>
      <feMerge>
        <feMergeNode in="coloredBlur"/>
        <feMergeNode in="SourceGraphic"/>
      </feMerge>
    </filter>
  </defs>
  <circle cx="90" cy="105" r="75" fill="url(#glowGrad)"/>
  <circle cx="90" cy="105" r="60" fill="none" stroke="#14B8A6" stroke-width="1.5" stroke-opacity="0.4"/>
  <circle cx="90" cy="105" r="42" fill="none" stroke="#2DD4BF" stroke-width="1" stroke-opacity="0.3"/>
  <circle cx="90" cy="105" r="52" fill="#14B8A6" fill-opacity="0.15"/>
  <path d="M 62 80 A 38 38 0 1 1 62 130 A 28 28 0 1 0 62 80 Z" fill="url(#symbolGrad)" filter="url(#glow)"/>
  <path d="M 78 72 Q 120 95 108 130" fill="none" stroke="white" stroke-width="2.5" stroke-linecap="round" stroke-opacity="0.9" filter="url(#glow)"/>
  <path d="M 68 82 Q 115 105 100 138" fill="none" stroke="white" stroke-width="1.5" stroke-linecap="round" stroke-opacity="0.5"/>
  <circle cx="128" cy="78" r="5" fill="#5EEAD4" filter="url(#glow)"/>
  <circle cx="128" cy="78" r="3" fill="white"/>
  <text x="170" y="95" font-family="Georgia, 'Times New Roman', serif" font-size="58" font-weight="900" letter-spacing="4" fill="white" filter="url(#glow)">NUVELO</text>
  <line x1="170" y1="108" x2="410" y2="108" stroke="#14B8A6" stroke-width="1" stroke-opacity="0.5"/>
  <text x="170" y="130" font-family="Georgia, 'Times New Roman', serif" font-size="14" font-weight="400" letter-spacing="5" fill="#5EEAD4" fill-opacity="0.85">NICE VIBES ONLY</text>
</svg>
